<mxfile host="app.diagrams.net" modified="2022-01-26T19:41:58.517Z" agent="5.0 (Windows NT 10.0; Win64; x64) AppleWebKit/537.36 (KHTML, like Gecko) Chrome/97.0.4692.99 Safari/537.36" etag="E3LPQHijifWVvb7cKh1W" version="16.4.7" type="github">
  <diagram id="XdaedSc9AdYq-WMmrCXc" name="Page-1">
    <mxGraphModel dx="1422" dy="754" grid="1" gridSize="10" guides="1" tooltips="1" connect="1" arrows="1" fold="1" page="1" pageScale="1" pageWidth="827" pageHeight="1169" math="0" shadow="0">
      <root>
        <mxCell id="0" />
        <mxCell id="1" parent="0" />
        <mxCell id="LY3zqaAp2808kgrfFXrz-7" style="edgeStyle=orthogonalEdgeStyle;rounded=0;orthogonalLoop=1;jettySize=auto;html=1;fontFamily=Times New Roman;fontSize=17;" edge="1" parent="1" source="LY3zqaAp2808kgrfFXrz-1" target="LY3zqaAp2808kgrfFXrz-6">
          <mxGeometry relative="1" as="geometry" />
        </mxCell>
        <mxCell id="LY3zqaAp2808kgrfFXrz-1" value="Begin" style="rounded=1;whiteSpace=wrap;html=1;fontFamily=Times New Roman;fontSize=17;" vertex="1" parent="1">
          <mxGeometry x="280" y="120" width="240" height="40" as="geometry" />
        </mxCell>
        <mxCell id="LY3zqaAp2808kgrfFXrz-2" value="End" style="rounded=1;whiteSpace=wrap;html=1;fontFamily=Times New Roman;fontSize=17;" vertex="1" parent="1">
          <mxGeometry x="280" y="560" width="240" height="40" as="geometry" />
        </mxCell>
        <mxCell id="LY3zqaAp2808kgrfFXrz-5" style="edgeStyle=orthogonalEdgeStyle;rounded=0;orthogonalLoop=1;jettySize=auto;html=1;entryX=0.5;entryY=0;entryDx=0;entryDy=0;fontFamily=Times New Roman;fontSize=17;" edge="1" parent="1" source="LY3zqaAp2808kgrfFXrz-3" target="LY3zqaAp2808kgrfFXrz-2">
          <mxGeometry relative="1" as="geometry" />
        </mxCell>
        <mxCell id="LY3zqaAp2808kgrfFXrz-3" value="&lt;span style=&quot;font-size: 17px; background-color: rgb(255, 255, 255);&quot;&gt;printf(&quot;%d&quot;, c);&lt;/span&gt;" style="shape=parallelogram;perimeter=parallelogramPerimeter;whiteSpace=wrap;html=1;fixedSize=1;fontFamily=Times New Roman;fontSize=17;" vertex="1" parent="1">
          <mxGeometry x="280" y="480" width="240" height="40" as="geometry" />
        </mxCell>
        <mxCell id="LY3zqaAp2808kgrfFXrz-4" style="edgeStyle=orthogonalEdgeStyle;rounded=0;orthogonalLoop=1;jettySize=auto;html=1;exitX=0.5;exitY=1;exitDx=0;exitDy=0;fontFamily=Times New Roman;fontSize=17;" edge="1" parent="1" source="LY3zqaAp2808kgrfFXrz-1" target="LY3zqaAp2808kgrfFXrz-1">
          <mxGeometry relative="1" as="geometry" />
        </mxCell>
        <mxCell id="LY3zqaAp2808kgrfFXrz-12" style="edgeStyle=orthogonalEdgeStyle;rounded=0;orthogonalLoop=1;jettySize=auto;html=1;fontFamily=Times New Roman;fontSize=17;" edge="1" parent="1" source="LY3zqaAp2808kgrfFXrz-6" target="LY3zqaAp2808kgrfFXrz-8">
          <mxGeometry relative="1" as="geometry" />
        </mxCell>
        <mxCell id="LY3zqaAp2808kgrfFXrz-6" value="Int a&lt;br style=&quot;font-size: 17px;&quot;&gt;Int b" style="rounded=0;whiteSpace=wrap;html=1;fontFamily=Times New Roman;fontSize=17;" vertex="1" parent="1">
          <mxGeometry x="280" y="200" width="240" height="40" as="geometry" />
        </mxCell>
        <mxCell id="LY3zqaAp2808kgrfFXrz-11" style="edgeStyle=orthogonalEdgeStyle;rounded=0;orthogonalLoop=1;jettySize=auto;html=1;entryX=0.5;entryY=0;entryDx=0;entryDy=0;fontFamily=Times New Roman;fontSize=17;" edge="1" parent="1" source="LY3zqaAp2808kgrfFXrz-8" target="LY3zqaAp2808kgrfFXrz-9">
          <mxGeometry relative="1" as="geometry" />
        </mxCell>
        <mxCell id="LY3zqaAp2808kgrfFXrz-8" value="&lt;span style=&quot;font-size: 17px; background-color: rgb(255, 255, 255);&quot;&gt;scanf (“%d, %d”, &amp;amp;a, &amp;amp;b)&lt;/span&gt;" style="shape=parallelogram;perimeter=parallelogramPerimeter;whiteSpace=wrap;html=1;fixedSize=1;fontFamily=Times New Roman;fontSize=17;" vertex="1" parent="1">
          <mxGeometry x="280" y="280" width="240" height="80" as="geometry" />
        </mxCell>
        <mxCell id="LY3zqaAp2808kgrfFXrz-10" style="edgeStyle=orthogonalEdgeStyle;rounded=0;orthogonalLoop=1;jettySize=auto;html=1;entryX=0.5;entryY=0;entryDx=0;entryDy=0;fontFamily=Times New Roman;fontSize=17;" edge="1" parent="1" source="LY3zqaAp2808kgrfFXrz-9" target="LY3zqaAp2808kgrfFXrz-3">
          <mxGeometry relative="1" as="geometry" />
        </mxCell>
        <mxCell id="LY3zqaAp2808kgrfFXrz-9" value="c = a + b" style="rounded=0;whiteSpace=wrap;html=1;fontFamily=Times New Roman;fontSize=17;" vertex="1" parent="1">
          <mxGeometry x="280" y="400" width="240" height="40" as="geometry" />
        </mxCell>
        <mxCell id="LY3zqaAp2808kgrfFXrz-15" style="edgeStyle=orthogonalEdgeStyle;rounded=0;orthogonalLoop=1;jettySize=auto;html=1;exitX=0.5;exitY=1;exitDx=0;exitDy=0;fontFamily=Times New Roman;fontSize=17;" edge="1" parent="1" source="LY3zqaAp2808kgrfFXrz-2" target="LY3zqaAp2808kgrfFXrz-2">
          <mxGeometry relative="1" as="geometry" />
        </mxCell>
      </root>
    </mxGraphModel>
  </diagram>
</mxfile>
